<svg class="icon" viewBox="0 0 1024 1024" version="1.1" xmlns="http://www.w3.org/2000/svg" width="128" height="128"><path d="M44.78464 513.2544a15.47264 15.47264 0 1 0 30.94528 0 15.47264 15.47264 0 0 0-30.94528 0z m857.17504-289.31584H355.82976c-1.86368 0-3.2512 0.29696-4.86912 0.45568-7.6032-2.02752-15.95392-0.43008-21.9136 5.5296L64.9472 481.96096c-7.66976 7.66976-23.12192 25.87136-17.54624 34.65728-1.408 2.82112-0.4096 5.12 1.65888 7.168l-0.13312 0.13312 290.5856 265.30304c3.02592 2.06848 5.50912 2.52928 10.88 3.09248 2.27328 0.45568 4.45952 0.68608 6.7584 0.47616h544.81408c37.7088 0 68.27008-30.56128 68.27008-68.25984V292.17792c-0.00512-37.6576-30.5664-68.23936-68.2752-68.23936z m22.7584 477.86496c0 25.11872-20.38784 45.51168-45.51168 45.51168H363.83744L103.97184 507.58656l249.53856-238.13632H879.21664c25.11872 0 45.51168 20.38784 45.51168 45.51168v386.8416z" fill="" ></path><path d="M460.73856 332.8l337.69472 337.69984-24.59648 24.6016-337.69984-337.69984L460.73856 332.8z m313.09824 0l24.59648 24.6016-337.69472 337.69472-24.6016-24.6016L773.8368 332.8z" fill="" ></path></svg>