<svg class="icon" width="128px" height="128.00px" viewBox="0 0 1024 1024" version="1.1" xmlns="http://www.w3.org/2000/svg"><path fill="#000000" d="M132.053333 132.053333C188.970667 75.093333 274.176 53.333333 384 53.333333h256c109.824 0 194.986667 21.76 251.946667 78.72C948.906667 188.970667 970.666667 274.176 970.666667 384v256c0 109.824-21.76 194.986667-78.72 251.946667C835.029333 948.906667 749.824 970.666667 640 970.666667H384c-109.824 0-194.986667-21.76-251.946667-78.72C75.093333 835.029333 53.333333 749.824 53.333333 640V384c0-109.824 21.76-194.986667 78.72-251.946667z m45.226667 45.226667C138.24 216.362667 117.333333 280.490667 117.333333 384v256c0 103.509333 20.906667 167.68 59.946667 206.72 39.082667 39.04 103.210667 59.946667 206.72 59.946667h256c103.509333 0 167.68-20.906667 206.72-59.946667 39.04-39.082667 59.946667-103.210667 59.946667-206.72V384c0-103.509333-20.906667-167.68-59.946667-206.72C807.637333 138.24 743.509333 117.333333 640 117.333333H384c-103.509333 0-167.68 20.906667-206.72 59.946667z"  /><path fill="#000000" d="M544 320a117.589333 117.589333 0 0 1 117.333333-117.333333 117.589333 117.589333 0 0 1 117.333334 117.333333v384a117.333333 117.333333 0 1 1-234.666667 0v-384z m117.333333-53.333333c-29.269333 0-53.333333 24.064-53.333333 53.333333v384a53.333333 53.333333 0 1 0 106.666667 0v-384c0-29.269333-24.064-53.333333-53.333334-53.333333zM245.333333 554.666667a117.589333 117.589333 0 0 1 117.333334-117.333334A117.589333 117.589333 0 0 1 480 554.666667v149.333333a117.333333 117.333333 0 1 1-234.666667 0V554.666667z m117.333334-53.333334c-29.269333 0-53.333333 24.064-53.333334 53.333334v149.333333a53.333333 53.333333 0 1 0 106.666667 0V554.666667c0-29.269333-24.064-53.333333-53.333333-53.333334z"  /></svg>