<svg class="icon" width="128px" height="128.00px" viewBox="0 0 1024 1024" version="1.1" xmlns="http://www.w3.org/2000/svg"><path fill="#000000" d="M489.984 54.144c44.16-1.024 90.112 10.197333 126.549333 35.712l263.637334 184.704c26.453333 18.432 48.725333 46.848 64.298666 76.714667 15.616 29.866667 26.197333 64.426667 26.197334 96.725333v310.613333c0 116.181333-94.933333 211.626667-211.626667 211.626667H264.96c-116.778667 0-211.626667-95.488-211.626667-212.053333v-316.16c0-30.293333 9.557333-63.146667 23.637334-91.818667 14.08-28.672 34.218667-56.362667 58.24-75.093333l229.973333-179.2c35.2-27.349333 80.64-40.746667 124.8-41.770667zM404.48 146.432l-229.930667 179.2c-14.336 11.136-29.013333 30.165333-40.106666 52.778667-11.093333 22.613333-17.109333 45.696-17.109334 63.616v316.16c0 81.408 66.432 148.053333 147.626667 148.053333h494.08a148.181333 148.181333 0 0 0 147.626667-147.626667V448c0-19.328-6.698667-43.648-18.944-67.114667-12.245333-23.466667-28.373333-42.837333-44.16-53.845333h-0.042667l-263.68-184.746667c-23.296-16.341333-55.210667-24.96-88.362667-24.149333-33.152 0.768-64.554667 10.88-86.997333 28.288z"  /><path fill="#000000" d="M512 607.573333a32 32 0 0 1 32 32v128a32 32 0 0 1-64 0v-128a32 32 0 0 1 32-32z"  /></svg>