<svg class="icon" width="128px" height="128.00px" viewBox="0 0 1024 1024" version="1.1" xmlns="http://www.w3.org/2000/svg"><path fill="#000000" d="M405.333333 160a32 32 0 0 0-32 32 117.333333 117.333333 0 0 0 117.333334 117.333333h42.666666a117.333333 117.333333 0 0 0 117.333334-117.333333 32 32 0 0 0-32-32h-213.333334z m-67.882666-35.882667A96 96 0 0 1 405.333333 96h213.333334a96 96 0 0 1 96 96 181.333333 181.333333 0 0 1-181.333334 181.333333h-42.666666A181.333333 181.333333 0 0 1 309.333333 192c0-25.472 10.112-49.877333 28.117334-67.882667z"  /><path fill="#000000" d="M512 373.333333A309.333333 309.333333 0 0 0 202.666667 682.666667v42.666666A138.666667 138.666667 0 0 0 341.333333 864h341.333334A138.666667 138.666667 0 0 0 821.333333 725.333333v-42.666666A309.333333 309.333333 0 0 0 512 373.333333zM248.021333 418.688A373.333333 373.333333 0 0 1 885.333333 682.666667v42.666666A202.666667 202.666667 0 0 1 682.666667 928H341.333333A202.666667 202.666667 0 0 1 138.666667 725.333333v-42.666666a373.333333 373.333333 0 0 1 109.354666-263.978667z"  /></svg>